<mxfile host="app.diagrams.net" modified="2022-04-17T18:05:11.262Z" agent="5.0 (Windows NT 10.0; Win64; x64) AppleWebKit/537.36 (KHTML, like Gecko) Chrome/99.0.4844.84 Safari/537.36 OPR/85.0.4341.68" etag="Bkxo3SuDbDlq2eZrmjpZ" version="17.4.5" type="github">
  <diagram id="SeiWjCj3xW3n_y48EqRE" name="Page-1">
    <mxGraphModel dx="1067" dy="483" grid="1" gridSize="10" guides="1" tooltips="1" connect="1" arrows="1" fold="1" page="1" pageScale="1" pageWidth="827" pageHeight="1169" math="0" shadow="0">
      <root>
        <mxCell id="0" />
        <mxCell id="1" parent="0" />
        <mxCell id="oDkGaTkPgl7XhdzMIjuv-1" value="Passageiro" style="rounded=0;whiteSpace=wrap;html=1;" vertex="1" parent="1">
          <mxGeometry x="40" y="190" width="120" height="60" as="geometry" />
        </mxCell>
        <mxCell id="oDkGaTkPgl7XhdzMIjuv-2" value="Realiza" style="rhombus;whiteSpace=wrap;html=1;" vertex="1" parent="1">
          <mxGeometry x="200" y="180" width="80" height="80" as="geometry" />
        </mxCell>
        <mxCell id="oDkGaTkPgl7XhdzMIjuv-3" value="Reserva" style="rounded=0;whiteSpace=wrap;html=1;" vertex="1" parent="1">
          <mxGeometry x="320" y="190" width="120" height="60" as="geometry" />
        </mxCell>
        <mxCell id="oDkGaTkPgl7XhdzMIjuv-4" value="" style="ellipse;whiteSpace=wrap;html=1;aspect=fixed;" vertex="1" parent="1">
          <mxGeometry x="90" y="150" width="20" height="20" as="geometry" />
        </mxCell>
        <mxCell id="oDkGaTkPgl7XhdzMIjuv-5" value="&lt;u&gt;nome&lt;/u&gt;" style="text;html=1;strokeColor=none;fillColor=none;align=center;verticalAlign=middle;whiteSpace=wrap;rounded=0;rotation=-90;" vertex="1" parent="1">
          <mxGeometry x="70" y="110" width="60" height="30" as="geometry" />
        </mxCell>
        <mxCell id="oDkGaTkPgl7XhdzMIjuv-6" value="" style="endArrow=none;html=1;rounded=0;" edge="1" parent="1" source="oDkGaTkPgl7XhdzMIjuv-1" target="oDkGaTkPgl7XhdzMIjuv-4">
          <mxGeometry width="50" height="50" relative="1" as="geometry">
            <mxPoint x="50" y="220" as="sourcePoint" />
            <mxPoint x="100" y="180" as="targetPoint" />
          </mxGeometry>
        </mxCell>
        <mxCell id="oDkGaTkPgl7XhdzMIjuv-7" value="" style="endArrow=none;html=1;rounded=0;" edge="1" parent="1" source="oDkGaTkPgl7XhdzMIjuv-1" target="oDkGaTkPgl7XhdzMIjuv-2">
          <mxGeometry width="50" height="50" relative="1" as="geometry">
            <mxPoint x="160" y="220" as="sourcePoint" />
            <mxPoint x="210" y="170" as="targetPoint" />
          </mxGeometry>
        </mxCell>
        <mxCell id="oDkGaTkPgl7XhdzMIjuv-8" value="" style="endArrow=none;html=1;rounded=0;" edge="1" parent="1" source="oDkGaTkPgl7XhdzMIjuv-2" target="oDkGaTkPgl7XhdzMIjuv-3">
          <mxGeometry width="50" height="50" relative="1" as="geometry">
            <mxPoint x="280" y="220" as="sourcePoint" />
            <mxPoint x="330" y="170" as="targetPoint" />
          </mxGeometry>
        </mxCell>
        <mxCell id="oDkGaTkPgl7XhdzMIjuv-9" value="ContÃ©m" style="rhombus;whiteSpace=wrap;html=1;" vertex="1" parent="1">
          <mxGeometry x="480" y="180" width="80" height="80" as="geometry" />
        </mxCell>
        <mxCell id="oDkGaTkPgl7XhdzMIjuv-10" value="Voo" style="rounded=0;whiteSpace=wrap;html=1;" vertex="1" parent="1">
          <mxGeometry x="600" y="190" width="120" height="60" as="geometry" />
        </mxCell>
        <mxCell id="oDkGaTkPgl7XhdzMIjuv-11" value="Possui" style="rhombus;whiteSpace=wrap;html=1;" vertex="1" parent="1">
          <mxGeometry x="620" y="280" width="80" height="80" as="geometry" />
        </mxCell>
        <mxCell id="oDkGaTkPgl7XhdzMIjuv-12" value="Trechos" style="rounded=0;whiteSpace=wrap;html=1;" vertex="1" parent="1">
          <mxGeometry x="600" y="390" width="120" height="60" as="geometry" />
        </mxCell>
        <mxCell id="oDkGaTkPgl7XhdzMIjuv-13" value="" style="endArrow=none;html=1;rounded=0;" edge="1" parent="1" source="oDkGaTkPgl7XhdzMIjuv-3" target="oDkGaTkPgl7XhdzMIjuv-9">
          <mxGeometry width="50" height="50" relative="1" as="geometry">
            <mxPoint x="440" y="220" as="sourcePoint" />
            <mxPoint x="490" y="170" as="targetPoint" />
          </mxGeometry>
        </mxCell>
        <mxCell id="oDkGaTkPgl7XhdzMIjuv-14" value="" style="endArrow=none;html=1;rounded=0;" edge="1" parent="1" source="oDkGaTkPgl7XhdzMIjuv-9" target="oDkGaTkPgl7XhdzMIjuv-10">
          <mxGeometry width="50" height="50" relative="1" as="geometry">
            <mxPoint x="470" y="280" as="sourcePoint" />
            <mxPoint x="510" y="370" as="targetPoint" />
          </mxGeometry>
        </mxCell>
        <mxCell id="oDkGaTkPgl7XhdzMIjuv-15" value="" style="endArrow=none;html=1;rounded=0;" edge="1" parent="1" source="oDkGaTkPgl7XhdzMIjuv-10" target="oDkGaTkPgl7XhdzMIjuv-11">
          <mxGeometry width="50" height="50" relative="1" as="geometry">
            <mxPoint x="580" y="310" as="sourcePoint" />
            <mxPoint x="630" y="260" as="targetPoint" />
          </mxGeometry>
        </mxCell>
        <mxCell id="oDkGaTkPgl7XhdzMIjuv-16" value="" style="endArrow=none;html=1;rounded=0;" edge="1" parent="1" source="oDkGaTkPgl7XhdzMIjuv-11" target="oDkGaTkPgl7XhdzMIjuv-12">
          <mxGeometry width="50" height="50" relative="1" as="geometry">
            <mxPoint x="530" y="410" as="sourcePoint" />
            <mxPoint x="580" y="360" as="targetPoint" />
          </mxGeometry>
        </mxCell>
        <mxCell id="oDkGaTkPgl7XhdzMIjuv-17" value="" style="ellipse;whiteSpace=wrap;html=1;aspect=fixed;" vertex="1" parent="1">
          <mxGeometry x="650" y="150" width="20" height="20" as="geometry" />
        </mxCell>
        <mxCell id="oDkGaTkPgl7XhdzMIjuv-18" value="" style="ellipse;whiteSpace=wrap;html=1;aspect=fixed;" vertex="1" parent="1">
          <mxGeometry x="680" y="150" width="20" height="20" as="geometry" />
        </mxCell>
        <mxCell id="oDkGaTkPgl7XhdzMIjuv-19" value="" style="ellipse;whiteSpace=wrap;html=1;aspect=fixed;" vertex="1" parent="1">
          <mxGeometry x="620" y="150" width="20" height="20" as="geometry" />
        </mxCell>
        <mxCell id="oDkGaTkPgl7XhdzMIjuv-20" value="" style="endArrow=none;html=1;rounded=0;exitX=0.25;exitY=0;exitDx=0;exitDy=0;" edge="1" parent="1" source="oDkGaTkPgl7XhdzMIjuv-10" target="oDkGaTkPgl7XhdzMIjuv-19">
          <mxGeometry width="50" height="50" relative="1" as="geometry">
            <mxPoint x="570" y="230" as="sourcePoint" />
            <mxPoint x="610" y="230" as="targetPoint" />
          </mxGeometry>
        </mxCell>
        <mxCell id="oDkGaTkPgl7XhdzMIjuv-21" value="" style="endArrow=none;html=1;rounded=0;" edge="1" parent="1" source="oDkGaTkPgl7XhdzMIjuv-10" target="oDkGaTkPgl7XhdzMIjuv-17">
          <mxGeometry width="50" height="50" relative="1" as="geometry">
            <mxPoint x="640.0000000000001" y="200" as="sourcePoint" />
            <mxPoint x="640.0000000000001" y="180" as="targetPoint" />
          </mxGeometry>
        </mxCell>
        <mxCell id="oDkGaTkPgl7XhdzMIjuv-22" value="" style="endArrow=none;html=1;rounded=0;exitX=0.75;exitY=0;exitDx=0;exitDy=0;" edge="1" parent="1" source="oDkGaTkPgl7XhdzMIjuv-10" target="oDkGaTkPgl7XhdzMIjuv-18">
          <mxGeometry width="50" height="50" relative="1" as="geometry">
            <mxPoint x="670.0000000000001" y="200" as="sourcePoint" />
            <mxPoint x="670.0000000000001" y="180" as="targetPoint" />
          </mxGeometry>
        </mxCell>
        <mxCell id="oDkGaTkPgl7XhdzMIjuv-23" value="&lt;u&gt;codigo&lt;/u&gt;" style="text;html=1;strokeColor=none;fillColor=none;align=center;verticalAlign=middle;whiteSpace=wrap;rounded=0;rotation=-90;" vertex="1" parent="1">
          <mxGeometry x="600" y="110" width="60" height="30" as="geometry" />
        </mxCell>
        <mxCell id="oDkGaTkPgl7XhdzMIjuv-24" value="origem" style="text;html=1;strokeColor=none;fillColor=none;align=center;verticalAlign=middle;whiteSpace=wrap;rounded=0;rotation=-90;" vertex="1" parent="1">
          <mxGeometry x="630" y="110" width="60" height="30" as="geometry" />
        </mxCell>
        <mxCell id="oDkGaTkPgl7XhdzMIjuv-25" value="destino" style="text;html=1;strokeColor=none;fillColor=none;align=center;verticalAlign=middle;whiteSpace=wrap;rounded=0;rotation=-90;" vertex="1" parent="1">
          <mxGeometry x="660" y="110" width="60" height="30" as="geometry" />
        </mxCell>
      </root>
    </mxGraphModel>
  </diagram>
</mxfile>
